<svg width="40" height="36" fill="none" xmlns="http://www.w3.org/2000/svg"><path d="M26.104.307V2.17h-3.727v14.908h3.727v1.864h3.727v-1.864h.931a4.658 4.658 0 002.49-8.59 4.66 4.66 0 00-3.422-6.22V.307h-3.726zm0 5.59h2.795a.932.932 0 01.036 1.864h-2.831V5.897zm0 5.59h4.657a.932.932 0 010 1.864h-4.659v-1.863zM9.247 17.079a5.59 5.59 0 00-1.66.273L0 19.127v13.427l7.454-2.431 15.2 5.32a4.6 4.6 0 003.69-.29L40 27.859l-2.2-4.689-13.415 6.147-.7-.902.558-1.223a3.727 3.727 0 00-1.915-4.943L11.414 17.48h-.037a5.59 5.59 0 00-2.129-.4z" fill="#fff"/></svg>