<svg width="34" height="31" fill="none" xmlns="http://www.w3.org/2000/svg"><path d="M29.708.35a1.66 1.66 0 00-.66.036L3.65 7h13.23l9.928-2.584A2.492 2.492 0 0028.654 5.5l.393 1.5h3.445l-1.413-5.42a1.667 1.667 0 00-1.37-1.23zM2 10.334A1.667 1.667 0 00.333 12v16.667A1.667 1.667 0 002 30.333h30a1.666 1.666 0 001.667-1.666V12A1.667 1.667 0 0032 10.334H2zm3.187 3.333h23.626a2.5 2.5 0 001.52 1.52V25.48a2.5 2.5 0 00-1.52 1.52H5.187a2.5 2.5 0 00-1.52-1.52V15.187a2.499 2.499 0 001.52-1.52zM17 15.334a5 5 0 100 10 5 5 0 000-10zm-8.333 3.333a1.666 1.666 0 10-.001 3.332 1.666 1.666 0 000-3.332zm16.666 0a1.666 1.666 0 100 3.332 1.666 1.666 0 000-3.332z" fill="#fff"/></svg>