<svg width="30" height="34" fill="none" xmlns="http://www.w3.org/2000/svg"><path d="M21.667.333c-2.067 0-3.95.397-5.46 1.152-1.509.755-2.874 2.027-2.874 3.848v5.96c-1.428-.62-3.132-.96-5-.96-2.066 0-3.949.397-5.459 1.152C1.364 12.24 0 13.512 0 15.333v13.333c0 1.822 1.365 3.093 2.874 3.848 1.51.755 3.393 1.152 5.46 1.152 2.065 0 3.949-.397 5.458-1.152 1.315-.657 2.517-1.708 2.806-3.17 1.442.639 3.171.989 5.069.989 2.066 0 3.949-.398 5.459-1.152 1.51-.755 2.874-2.027 2.874-3.848v-20c0-1.821-1.365-3.093-2.874-3.848C25.616.73 23.733.333 21.666.333zm-5 9.04c1.428.62 3.132.96 5 .96 1.868 0 3.571-.34 5-.96V12c0 .02-.13.414-1.032.866-.903.451-2.353.8-3.968.8-1.616 0-3.065-.349-3.968-.8-.904-.452-1.032-.846-1.032-.866V9.373zm0 6.666c1.428.62 3.132.96 5 .96 1.867 0 3.571-.34 5-.96v2.627c0 .02-.13.415-1.032.866-.903.452-2.353.801-3.968.801-1.616 0-3.065-.35-3.968-.8-.904-.452-1.032-.846-1.032-.867V16.04zM3.333 19.373c1.428.62 3.132.96 5 .96 1.868 0 3.572-.34 5-.96V22c0 .02-.128.414-1.032.866-.903.451-2.352.8-3.968.8-1.615 0-3.065-.349-3.968-.8-.903-.452-1.032-.846-1.032-.866v-2.627zm13.334 3.333c1.428.62 3.132.96 5 .96 1.867 0 3.571-.34 5-.96v2.627c0 .02-.13.414-1.032.866-.903.451-2.353.8-3.968.8-1.616 0-3.065-.349-3.968-.8-.904-.452-1.032-.846-1.032-.866v-2.627zm-3.334 3.33v2.63c0 .02-.128.415-1.032.866-.903.452-2.352.801-3.968.801-1.615 0-3.065-.35-3.968-.8-.903-.452-1.032-.846-1.032-.867V26.04c1.429.62 3.132.96 5 .96 1.87 0 3.572-.342 5-.963z" fill="#fff"/></svg>