<svg width="34" height="34" fill="none" xmlns="http://www.w3.org/2000/svg"><path d="M3.667.333v8.333H12L9.396 6.062A13.236 13.236 0 0117 3.666 13.307 13.307 0 0130.334 17h3.333C33.667 7.814 26.186.333 17 .333A16.612 16.612 0 007 3.666L3.667.333zm17.337 9.251l-10.006 13.33 1.998 1.501 10.007-13.33-1.999-1.5zm-8.17.749a2.5 2.5 0 000 5 2.5 2.5 0 000-5zM.334 17c0 9.185 7.48 16.666 16.666 16.666 3.745 0 7.214-1.24 10-3.333l3.334 3.333v-8.333H22l2.604 2.604A13.236 13.236 0 0117 30.333 13.307 13.307 0 013.667 17H.333zm20.833 1.666a2.5 2.5 0 000 5 2.5 2.5 0 000-5z" fill="#fff"/></svg>