<svg width="205" height="60" fill="none" xmlns="http://www.w3.org/2000/svg"><path d="M15.027 0H201a4 4 0 014 4v37.037a4 4 0 01-.733 2.308l-10.574 14.963A3.998 3.998 0 01190.427 60H4a4 4 0 01-4-4V19.004a4 4 0 01.777-2.369L11.803 1.631A4 4 0 0115.027 0z" fill="#0DE6BE"/><path d="M40.383 36h-1.867v-4.86h-5.274V36h-1.86V24.797h1.86v4.71h5.274v-4.71h1.867V36zm11.968 0h-2.039l-1.007-2.852h-4.407L43.93 36h-2.032l4.196-11.203h2.093L52.352 36zm-3.539-4.367l-1.554-4.469a5.294 5.294 0 01-.149-.703h-.031a4.565 4.565 0 01-.156.703l-1.54 4.469h3.43zM60.703 36h-1.86v-4.773c-1.171.604-2.26.906-3.265.906-1.036 0-1.839-.26-2.406-.781-.563-.526-.844-1.264-.844-2.211v-4.344h1.852v4.008c0 1.161.593 1.742 1.78 1.742.845 0 1.806-.271 2.884-.813v-4.937h1.859V36zm12.055 0h-2.04l-1.007-2.852h-4.406L64.335 36h-2.03L66.5 24.797h2.094L72.758 36zm-3.54-4.367l-1.554-4.469a5.29 5.29 0 01-.148-.703h-.032a4.576 4.576 0 01-.156.703l-1.539 4.469h3.43zm11.227-5.258h-3.218V36h-1.86v-9.625h-3.21v-1.578h8.288v1.578zM82.085 36V24.797h1.852v4.508h1.915c1.187 0 2.111.276 2.773.828.661.552.992 1.338.992 2.36 0 1.082-.349 1.94-1.047 2.57-.692.624-1.638.937-2.836.937h-3.648zm1.852-5.188v3.672h1.61c.677 0 1.198-.164 1.562-.492.37-.328.555-.786.555-1.375 0-1.203-.724-1.804-2.172-1.804h-1.555zM108.086 36h-1.844v-7.25c0-.594.037-1.32.109-2.18h-.031c-.114.49-.216.841-.304 1.055L102.672 36h-1.281l-3.352-8.313c-.094-.244-.193-.617-.297-1.117h-.031c.041.448.062 1.18.062 2.196V36h-1.718V24.797h2.617l2.945 7.46c.224.574.37 1 .438 1.282h.039a19.23 19.23 0 01.468-1.312l3-7.43h2.524V36zm11.969 0h-2.039l-1.008-2.852h-4.407L111.633 36h-2.032l4.196-11.203h2.094L120.055 36zm-3.539-4.367l-1.555-4.469a5.24 5.24 0 01-.149-.703h-.031a4.63 4.63 0 01-.156.703l-1.539 4.469h3.43zM131.101 36h-1.789v-7.46c0-.673.026-1.147.079-1.423h-.047c-.089.235-.198.45-.328.649L123.641 36h-2.04V24.797h1.797v7.125c0 .818-.02 1.351-.062 1.601h.031c.104-.208.24-.437.406-.687l5.188-8.04h2.14V36zm-1.625-14.75c-.083.781-.406 1.398-.968 1.852-.558.447-1.258.671-2.102.671-.864 0-1.57-.224-2.117-.671-.542-.454-.839-1.07-.891-1.852h1.508c.073.948.581 1.422 1.524 1.422.416 0 .76-.125 1.031-.375.276-.25.445-.6.508-1.047h1.507zM142.883 36h-1.867v-4.86h-5.274V36h-1.859V24.797h1.859v4.71h5.274v-4.71h1.867V36zm12.265 0h-1.789v-7.46c0-.673.026-1.147.078-1.423h-.046c-.089.235-.198.45-.329.649L147.687 36h-2.039V24.797h1.797v7.125c0 .818-.021 1.351-.062 1.601h.031c.104-.208.24-.437.406-.687l5.188-8.04h2.14V36zm9.969-9.625h-3.219V36h-1.859v-9.625h-3.211v-1.578h8.289v1.578zM166.758 36V24.797h1.851v4.508h1.914c1.188 0 2.112.276 2.774.828.661.552.992 1.338.992 2.36 0 1.082-.349 1.94-1.047 2.57-.693.624-1.638.937-2.836.937h-3.648zm1.851-5.188v3.672h1.61c.677 0 1.198-.164 1.562-.492.37-.328.555-.786.555-1.375 0-1.203-.724-1.804-2.172-1.804h-1.555z" fill="#0C0C15"/></svg>