<svg width="152" height="60" fill="none" xmlns="http://www.w3.org/2000/svg"><path d="M15.027 0H148a4 4 0 014 4v37.037a4 4 0 01-.733 2.308l-10.574 14.963A3.998 3.998 0 01137.427 60H4a4 4 0 01-4-4V19.004a4 4 0 01.777-2.369L11.803 1.631A4 4 0 0115.027 0z" fill="#0DE6BE"/><path d="M36 36.188c-1.615 0-2.909-.524-3.883-1.57-.969-1.048-1.453-2.41-1.453-4.087 0-1.802.495-3.24 1.484-4.312.99-1.073 2.334-1.61 4.032-1.61 1.572 0 2.838.521 3.797 1.563.963 1.041 1.445 2.404 1.445 4.086 0 1.828-.492 3.273-1.477 4.336-.984 1.062-2.3 1.593-3.945 1.593zm.086-9.946c-1.026 0-1.862.383-2.508 1.149-.64.765-.96 1.773-.96 3.023 0 1.245.312 2.247.937 3.008.625.76 1.442 1.14 2.453 1.14 1.073 0 1.919-.361 2.539-1.085.62-.724.93-1.737.93-3.04 0-1.338-.303-2.372-.907-3.101-.599-.73-1.427-1.094-2.484-1.094zm13.906.133h-3.219V36h-1.859v-9.625h-3.211v-1.578h8.29v1.578zM60.672 36h-1.867v-9.54h-5.313V36h-1.86V24.797h9.04V36zm4.594-4.063V36h-1.852V24.797h3.398c1.287 0 2.284.3 2.993.898.708.6 1.062 1.443 1.062 2.532 0 1.088-.37 1.979-1.11 2.671-.739.693-1.739 1.04-3 1.04h-1.492zm0-5.609v4.094h1.203c.797 0 1.403-.185 1.82-.555.417-.37.625-.89.625-1.562 0-1.318-.766-1.977-2.297-1.977h-1.352zM80.835 36h-2.04l-1.007-2.852h-4.406L72.414 36h-2.031l4.195-11.203h2.094L80.836 36zm-3.54-4.367l-1.554-4.469a5.278 5.278 0 01-.148-.703h-.032a4.577 4.577 0 01-.156.703l-1.539 4.469h3.43zM82.384 36V24.797h3.554c1.084 0 1.94.237 2.57.71.636.475.954 1.092.954 1.852 0 .636-.18 1.188-.54 1.657-.359.468-.856.802-1.491 1v.03c.77.09 1.385.376 1.843.86.464.48.696 1.104.696 1.875 0 .959-.378 1.735-1.133 2.328-.755.594-1.709.891-2.86.891h-3.593zm1.851-9.71v3.187h1.203c.646 0 1.151-.151 1.516-.454.37-.307.555-.74.555-1.296 0-.959-.64-1.438-1.922-1.438h-1.352zm0 4.679v3.547h1.586c.693 0 1.227-.16 1.602-.477.38-.323.57-.766.57-1.328 0-1.162-.805-1.742-2.414-1.742h-1.344zM101.555 36h-1.79v-7.46c0-.673.027-1.147.079-1.423h-.047c-.089.235-.198.45-.328.649L94.094 36h-2.04V24.797h1.797v7.125c0 .818-.02 1.351-.062 1.601h.031a6.46 6.46 0 01.407-.687l5.187-8.04h2.141V36zm9.968-9.625h-3.218V36h-1.86v-9.625h-3.211v-1.578h8.289v1.578zM113.164 36V24.797h1.852v4.508h1.914c1.187 0 2.112.276 2.773.828.661.552.992 1.338.992 2.36 0 1.082-.349 1.94-1.047 2.57-.692.624-1.638.937-2.836.937h-3.648zm1.852-5.188v3.672h1.609c.677 0 1.198-.164 1.562-.492.37-.328.555-.786.555-1.375 0-1.203-.724-1.804-2.172-1.804h-1.554z" fill="#0C0C15"/></svg>