<svg width="188" height="60" fill="none" xmlns="http://www.w3.org/2000/svg"><path fill-rule="evenodd" clip-rule="evenodd" d="M4 0h177a4 4 0 014 4v2c0 2.21 2.398 4.146 2.916 6.294.055.226.084.463.084.706v34c0 .243-.029.48-.084.706C187.398 49.854 185 51.791 185 54v2a4 4 0 01-4 4H15.027a4 4 0 01-3.224-1.631L.777 43.365A4 4 0 010 40.995V4a4 4 0 014-4z" fill="#0DE6BE"/><path d="M30.383 36h-1.867v-4.86h-5.274V36h-1.86V24.797h1.86v4.71h5.274v-4.71h1.867V36zm11.969 0h-2.04l-1.007-2.852h-4.407L33.93 36h-2.032l4.196-11.203h2.093L42.352 36zm-3.54-4.367l-1.554-4.469a5.294 5.294 0 01-.149-.703h-.03a4.577 4.577 0 01-.157.703l-1.54 4.469h3.43zM50.703 36h-1.86v-4.773c-1.171.604-2.26.906-3.265.906-1.036 0-1.838-.26-2.406-.781-.563-.526-.844-1.264-.844-2.211v-4.344h1.852v4.008c0 1.161.593 1.742 1.78 1.742.845 0 1.806-.271 2.884-.813v-4.937h1.86V36zm12.055 0h-2.04l-1.007-2.852h-4.406L54.335 36h-2.03L56.5 24.797h2.094L62.758 36zm-3.54-4.367l-1.554-4.469a5.29 5.29 0 01-.148-.703h-.032a4.576 4.576 0 01-.156.703l-1.539 4.469h3.43zm11.227-5.258h-3.218V36h-1.86v-9.625h-3.21v-1.578h8.288v1.578zM72.085 36V24.797h1.853v4.508h1.914c1.187 0 2.111.276 2.773.828.662.552.992 1.338.992 2.36 0 1.082-.349 1.94-1.047 2.57-.692.624-1.638.937-2.836.937h-3.648zm1.853-5.188v3.672h1.609c.677 0 1.198-.164 1.562-.492.37-.328.555-.786.555-1.375 0-1.203-.724-1.804-2.172-1.804h-1.555zM98.085 36h-1.844v-7.25c0-.594.037-1.32.11-2.18h-.032c-.114.49-.216.841-.304 1.055L92.672 36H91.39l-3.352-8.313c-.094-.244-.193-.617-.297-1.117h-.031c.042.448.062 1.18.062 2.196V36h-1.718V24.797h2.617l2.945 7.46c.224.574.37 1 .438 1.282h.039c.193-.589.349-1.026.469-1.312l3-7.43h2.523V36zm11.969 0h-2.039l-1.008-2.852h-4.406L101.633 36h-2.031l4.195-11.203h2.094L110.055 36zm-3.539-4.367l-1.555-4.469a5.406 5.406 0 01-.149-.703h-.031a4.63 4.63 0 01-.156.703l-1.539 4.469h3.43zM121.102 36h-1.79v-7.46c0-.673.027-1.147.079-1.423h-.047c-.089.235-.198.45-.328.649L113.641 36h-2.039V24.797h1.796v7.125c0 .818-.02 1.351-.062 1.601h.031c.104-.208.24-.437.406-.687l5.188-8.04h2.141V36zm-1.625-14.75c-.084.781-.407 1.398-.969 1.852-.557.447-1.258.671-2.102.671-.864 0-1.57-.224-2.117-.671-.542-.454-.838-1.07-.891-1.852h1.508c.073.948.581 1.422 1.524 1.422.416 0 .76-.125 1.031-.375.276-.25.445-.6.508-1.047h1.508zM132.883 36h-1.867v-4.86h-5.274V36h-1.859V24.797h1.859v4.71h5.274v-4.71h1.867V36zm12.265 0h-1.789v-7.46c0-.673.026-1.147.079-1.423h-.047c-.089.235-.198.45-.329.649L137.688 36h-2.04V24.797h1.797v7.125c0 .818-.021 1.351-.062 1.601h.031c.104-.208.24-.437.406-.687l5.188-8.04h2.14V36zm9.969-9.625h-3.219V36h-1.859v-9.625h-3.211v-1.578h8.289v1.578zM156.758 36V24.797h1.851v4.508h1.914c1.188 0 2.112.276 2.774.828.661.552.992 1.338.992 2.36 0 1.082-.349 1.94-1.047 2.57-.693.624-1.638.937-2.836.937h-3.648zm1.851-5.188v3.672h1.61c.677 0 1.198-.164 1.562-.492.37-.328.555-.786.555-1.375 0-1.203-.724-1.804-2.172-1.804h-1.555z" fill="#0C0C15"/></svg>