<svg width="135" height="60" fill="none" xmlns="http://www.w3.org/2000/svg"><g filter="url(#filter0_b_579_2227)"><mask id="a" fill="#fff"><path fill-rule="evenodd" clip-rule="evenodd" d="M131 60H4a4 4 0 01-4-4v-2c0-2.21 2.398-4.146 2.916-6.294C2.971 47.48 3 47.243 3 47V13c0-.243-.029-.48-.084-.706C2.398 10.146 0 8.209 0 6V4a4 4 0 014-4h115.973c1.273 0 2.47.606 3.224 1.631l11.026 15.004a4 4 0 01.777 2.37V56a4 4 0 01-4 4z"/></mask><path fill-rule="evenodd" clip-rule="evenodd" d="M131 60H4a4 4 0 01-4-4v-2c0-2.21 2.398-4.146 2.916-6.294C2.971 47.48 3 47.243 3 47V13c0-.243-.029-.48-.084-.706C2.398 10.146 0 8.209 0 6V4a4 4 0 014-4h115.973c1.273 0 2.47.606 3.224 1.631l11.026 15.004a4 4 0 01.777 2.37V56a4 4 0 01-4 4z" fill="#0DE6BE" fill-opacity=".01"/><path d="M123.197 1.631l-.806.592.806-.592zm11.026 15.004l.806-.592-.806.592zM4 61h127v-2H4v2zm-5-5a5 5 0 005 5v-2a3 3 0 01-3-3h-2zm0-2v2h2v-2h-2zm3-7c0 .164-.02.321-.056.472l1.945.469C3.962 47.638 4 47.323 4 47H2zm0-34v34h2V13H2zm-.056-.472c.037.15.056.308.056.472h2c0-.323-.038-.638-.111-.94l-1.945.468zM-1 4v2h2V4h-2zm5-5a5 5 0 00-5 5h2a3 3 0 013-3v-2zm115.973 0H4v2h115.973v-2zm4.029 2.04A5 5 0 00119.973-1v2a3 3 0 012.418 1.223l1.611-1.184zm11.027 15.003L124.002 1.04l-1.611 1.184 11.026 15.005 1.612-1.185zm.971 2.961c0-1.065-.34-2.103-.971-2.96l-1.612 1.183c.379.515.583 1.138.583 1.777h2zM136 56V19.004h-2V56h2zm-5 5a5 5 0 005-5h-2a3 3 0 01-3 3v2zM3.889 12.06c-.31-1.284-1.174-2.486-1.785-3.432C1.424 7.575 1 6.77 1 6h-2c0 1.438.775 2.707 1.424 3.712.718 1.112 1.312 1.952 1.52 2.816l1.945-.469zM1 54c0-.772.424-1.575 1.104-2.628.61-.946 1.475-2.148 1.785-3.431l-1.945-.47c-.208.865-.802 1.705-1.52 2.817C-.226 51.293-1 52.562-1 54h2z" fill="#0DE6BE" mask="url(#a)"/></g><path d="M30.422 36h-1.867v-9.54h-5.313V36h-1.86V24.797h9.04V36zm7.36.188c-1.615 0-2.91-.524-3.884-1.57-.968-1.048-1.453-2.41-1.453-4.087 0-1.802.495-3.24 1.485-4.312.99-1.073 2.333-1.61 4.03-1.61 1.574 0 2.84.521 3.798 1.563.963 1.041 1.445 2.404 1.445 4.086 0 1.828-.492 3.273-1.476 4.336-.985 1.062-2.3 1.593-3.946 1.593zm.085-9.946c-1.026 0-1.862.383-2.508 1.149-.64.765-.96 1.773-.96 3.023 0 1.245.312 2.247.937 3.008.625.76 1.443 1.14 2.453 1.14 1.073 0 1.92-.361 2.54-1.085.619-.724.929-1.737.929-3.04 0-1.338-.302-2.372-.906-3.101-.6-.73-1.427-1.094-2.485-1.094zm17.055 12.781h-1.664V36h-7.61v3.023h-1.656v-4.601h.946c.703-1.318 1.299-2.854 1.789-4.61.49-1.76.765-3.432.828-5.015h5.82v9.625h1.547v4.601zm-3.406-4.601v-8.024h-2.422c-.073 1.167-.326 2.534-.758 4.102-.432 1.568-.914 2.875-1.445 3.922h4.625zm7.203-2.484V36h-1.852V24.797h3.399c1.286 0 2.284.3 2.992.898.708.6 1.062 1.443 1.062 2.532 0 1.088-.37 1.979-1.11 2.671-.739.693-1.739 1.04-3 1.04h-1.49zm0-5.61v4.094h1.203c.797 0 1.404-.185 1.82-.555.417-.37.625-.89.625-1.562 0-1.318-.765-1.977-2.297-1.977h-1.35zm12.047 9.86c-1.615 0-2.91-.524-3.883-1.57-.969-1.048-1.453-2.41-1.453-4.087 0-1.802.494-3.24 1.484-4.312.99-1.073 2.333-1.61 4.031-1.61 1.573 0 2.839.521 3.797 1.563.964 1.041 1.445 2.404 1.445 4.086 0 1.828-.492 3.273-1.476 4.336-.984 1.062-2.3 1.593-3.945 1.593zm.086-9.946c-1.026 0-1.862.383-2.508 1.149-.64.765-.961 1.773-.961 3.023 0 1.245.312 2.247.937 3.008.625.76 1.443 1.14 2.453 1.14 1.073 0 1.92-.361 2.54-1.085.62-.724.93-1.737.93-3.04 0-1.338-.303-2.372-.907-3.101-.599-.73-1.427-1.094-2.484-1.094zM78.242 36V24.797h6.54v1.586h-4.68v3.062h2.14c1.146 0 2.037.271 2.672.813.64.541.961 1.31.961 2.305 0 1.062-.341 1.9-1.023 2.515-.678.615-1.602.922-2.774.922h-3.836zm1.86-5.078v3.594h1.68c.681 0 1.208-.162 1.577-.485.37-.323.555-.773.555-1.351 0-1.172-.7-1.758-2.102-1.758h-1.71zM96.898 36h-1.867v-4.86h-5.273V36h-1.86V24.797h1.86v4.71h5.273v-4.71h1.867V36zm9.055 0h-6.289V24.797h6.039v1.578h-4.18v3.172h3.852v1.57h-3.852v3.313h4.43V36zm8.281 0h-6.289V24.797h6.039v1.578h-4.179v3.172h3.851v1.57h-3.851v3.313h4.429V36z" fill="#fff"/><defs><filter id="filter0_b_579_2227" x="-40" y="-40" width="215" height="140" filterUnits="userSpaceOnUse" color-interpolation-filters="sRGB"><feFlood flood-opacity="0" result="BackgroundImageFix"/><feGaussianBlur in="BackgroundImageFix" stdDeviation="20"/><feComposite in2="SourceAlpha" operator="in" result="effect1_backgroundBlur_579_2227"/><feBlend in="SourceGraphic" in2="effect1_backgroundBlur_579_2227" result="shape"/></filter></defs></svg>