<svg width="103" height="40" fill="none" xmlns="http://www.w3.org/2000/svg"><path fill-rule="evenodd" clip-rule="evenodd" d="M99 40H4a4 4 0 01-4-4v-.858C0 33.407 2 31.735 2 30V10c0-1.735-2-3.407-2-5.142V4a4 4 0 014-4h83.973a4 4 0 013.224 1.631l11.026 15.004a4 4 0 01.777 2.37V36a4 4 0 01-4 4z" fill="#0DE6BE"/><path d="M27.285 25v-9.803h2.79c.847 0 1.52.208 2.016.622.497.415.745.955.745 1.62 0 .556-.15 1.04-.451 1.45-.301.41-.716.701-1.244.875v.027c.66.078 1.19.328 1.586.752.396.42.594.966.594 1.64 0 .84-.3 1.518-.902 2.038-.602.52-1.36.779-2.276.779h-2.858zm1.149-8.764v3.165h1.175c.63 0 1.124-.15 1.484-.45.36-.306.54-.735.54-1.286 0-.952-.627-1.429-1.88-1.429h-1.32zm0 4.198v3.527h1.558c.675 0 1.197-.16 1.566-.479.373-.319.56-.756.56-1.312 0-1.158-.788-1.736-2.365-1.736h-1.32zm10.828 4.73c-1.39 0-2.505-.458-3.343-1.374-.834-.916-1.251-2.108-1.251-3.575 0-1.577.426-2.835 1.278-3.774.852-.938 2.012-1.408 3.48-1.408 1.353 0 2.442.456 3.267 1.367.83.912 1.245 2.104 1.245 3.576 0 1.6-.424 2.864-1.272 3.794-.848.93-1.982 1.394-3.404 1.394zm.082-9.092c-1.03 0-1.867.372-2.509 1.114-.643.743-.964 1.719-.964 2.926 0 1.208.312 2.181.937 2.92.629.733 1.447 1.1 2.454 1.1 1.075 0 1.923-.351 2.543-1.053.62-.702.93-1.684.93-2.946 0-1.294-.301-2.295-.903-3.001-.602-.707-1.431-1.06-2.488-1.06zM53.768 25h-1.149v-7.082c0-.638.023-1.087.069-1.347h-.041a3.248 3.248 0 01-.315.615L47.287 25h-1.422v-9.803h1.149v6.905c0 .738-.019 1.219-.055 1.442h.027c.1-.2.228-.42.383-.656l4.922-7.69h1.477V25zm-1.45-12.783c-.068.642-.328 1.15-.779 1.524-.447.37-1.007.554-1.682.554-.692 0-1.257-.185-1.695-.554-.433-.373-.67-.882-.71-1.524h1.107c.063.857.5 1.285 1.312 1.285.365 0 .665-.112.902-.335.237-.228.383-.545.438-.95h1.107zm9.83 4.02h-2.83V25H58.17v-8.764h-2.823v-1.039h6.801v1.04zM71.596 25h-1.149v-7.082c0-.638.023-1.087.069-1.347h-.041a3.254 3.254 0 01-.315.615L65.115 25h-1.422v-9.803h1.149v6.905c0 .738-.018 1.219-.055 1.442h.027c.1-.2.228-.42.383-.656l4.922-7.69h1.477V25z" fill="#0C0C15"/></svg>