<svg width="50" height="50" fill="none" xmlns="http://www.w3.org/2000/svg"><g clip-path="url(#clip0_578_2168)" fill-rule="evenodd" clip-rule="evenodd"><path d="M38.963 14.489H50v7.956H38.963a21.09 21.09 0 00-.001-7.957zm-2.251 14.155V50h-8.596V37.05a21.033 21.033 0 008.596-8.405z" fill="#fff"/><path d="M18.422 0c6.818 0 12.77 3.713 15.955 9.232l-7.007 4.056a10.322 10.322 0 00-8.948-5.178c-5.707 0-10.332 4.637-10.332 10.357 0 5.721 4.625 10.358 10.332 10.358 4.299 0 7.985-2.634 9.541-6.38H14.831v-7.957h21.582c.281 1.282.43 2.613.43 3.98 0 10.198-8.248 18.466-18.422 18.466C8.249 36.934 0 28.664 0 18.466S8.248 0 18.422 0z" fill="#0DE6BE"/></g><defs><clipPath id="clip0_578_2168"><path fill="#fff" d="M0 0h50v50H0z"/></clipPath></defs></svg>