<svg width="152" height="40" fill="none" xmlns="http://www.w3.org/2000/svg"><g filter="url(#filter0_b_583_1657)"><mask id="a" fill="#fff"><path fill-rule="evenodd" clip-rule="evenodd" d="M146 0H4a4 4 0 00-4 4v32a4 4 0 004 4h142a4 4 0 004-4v-.858c0-1.735 2-3.407 2-5.142V10c0-1.735-2-3.407-2-5.142V4a4 4 0 00-4-4z"/></mask><path fill-rule="evenodd" clip-rule="evenodd" d="M146 0H4a4 4 0 00-4 4v32a4 4 0 004 4h142a4 4 0 004-4v-.858c0-1.735 2-3.407 2-5.142V10c0-1.735-2-3.407-2-5.142V4a4 4 0 00-4-4z" fill="#0DE6BE" fill-opacity=".01"/><path d="M4 1h142v-2H4v2zM1 4a3 3 0 013-3v-2a5 5 0 00-5 5h2zm0 13.692V4h-2v13.692h2zM1 36V17.692h-2V36h2zm3 3a3 3 0 01-3-3h-2a5 5 0 005 5v-2zm142 0H4v2h142v-2zm3-3a3 3 0 01-3 3v2a5 5 0 005-5h-2zm0-.858V36h2v-.858h-2zM151 10v20h2V10h-2zm-2-6v.858h2V4h-2zm-3-3a3 3 0 013 3h2a5 5 0 00-5-5v2zm7 9c0-1.194-.678-2.295-1.138-3.077-.54-.921-.862-1.523-.862-2.065h-2c0 1.194.678 2.295 1.138 3.077.54.922.862 1.523.862 2.065h2zm-2 25.142c0-.542.322-1.144.862-2.065.46-.782 1.138-1.883 1.138-3.077h-2c0 .542-.322 1.143-.862 2.065-.46.782-1.138 1.883-1.138 3.077h2z" fill="#0DE6BE" mask="url(#a)"/></g><path d="M30.434 21.295V25h-1.149v-9.803h2.694c1.048 0 1.859.256 2.433.766.579.51.868 1.23.868 2.16 0 .93-.321 1.69-.964 2.283-.638.593-1.501.889-2.59.889h-1.292zm0-5.059v4.02h1.203c.793 0 1.396-.18 1.811-.54.42-.365.63-.878.63-1.538 0-1.294-.767-1.942-2.298-1.942h-1.346zM42.328 25h-5.195v-9.803h4.976v1.04h-3.828v3.26h3.541v1.032h-3.54v3.432h4.046V25zm6.973-8.736h-3.93V25h-1.156v-9.803H49.3v1.067zM58.72 25h-1.149v-7.082c0-.638.023-1.087.069-1.347h-.04a3.254 3.254 0 01-.315.615L52.24 25h-1.422v-9.803h1.149v6.905c0 .738-.018 1.219-.055 1.442h.028c.1-.2.227-.42.382-.656l4.922-7.69h1.477V25zm9.256-.41c-.725.383-1.627.574-2.708.574-1.394 0-2.51-.449-3.35-1.347-.838-.897-1.257-2.076-1.257-3.534 0-1.568.472-2.834 1.415-3.8.944-.967 2.14-1.45 3.589-1.45.93 0 1.7.135 2.31.404v1.223a4.685 4.685 0 00-2.324-.588c-1.125 0-2.039.376-2.74 1.128-.698.752-1.047 1.757-1.047 3.015 0 1.194.326 2.146.978 2.857.656.707 1.515 1.06 2.577 1.06.984 0 1.837-.219 2.557-.656v1.114zm7.792-8.354h-2.83V25H71.79v-8.764h-2.823v-1.039h6.801v1.04zm2.694 5.059V25h-1.148v-9.803h2.693c1.048 0 1.86.256 2.433.766.58.51.869 1.23.869 2.16 0 .93-.322 1.69-.964 2.283-.638.593-1.502.889-2.591.889h-1.292zm0-5.059v4.02h1.203c.793 0 1.397-.18 1.812-.54.419-.365.628-.878.628-1.538 0-1.294-.765-1.942-2.296-1.942h-1.347zM92.75 25h-1.272l-1.038-2.748h-4.157L85.306 25h-1.279l3.76-9.803h1.19L92.75 25zm-2.686-3.78l-1.539-4.177c-.05-.137-.1-.355-.15-.656h-.027a3.659 3.659 0 01-.158.656l-1.524 4.177h3.398zm12.817 6.412h-1.06V25h-7.622v-9.803h1.149v8.764h5.072v-8.764h1.148v8.764h1.313v3.67zM112.492 25h-1.148v-7.082c0-.638.023-1.087.068-1.347h-.041a3.218 3.218 0 01-.314.615L106.012 25h-1.422v-9.803h1.148v6.905c0 .738-.018 1.219-.054 1.442h.027c.1-.2.228-.42.383-.656l4.922-7.69h1.476V25zm8.279 0h-1.149v-4.17h-1.429c-.273 0-.515.075-.724.226-.205.145-.426.476-.663.99L115.575 25h-1.367l1.49-3.274a3.01 3.01 0 01.438-.677c.2-.242.433-.413.697-.513v-.027c-.652-.142-1.16-.44-1.524-.896-.36-.455-.54-1.007-.54-1.654 0-.834.289-1.502.868-2.003.583-.506 1.346-.759 2.29-.759h2.844V25zm-1.149-5.209v-3.555h-1.593c-.647 0-1.15.153-1.51.458-.356.306-.534.736-.534 1.292s.183.996.547 1.32c.365.323.855.485 1.47.485h1.62z" fill="#fff"/><defs><filter id="filter0_b_583_1657" x="-40" y="-40" width="232" height="120" filterUnits="userSpaceOnUse" color-interpolation-filters="sRGB"><feFlood flood-opacity="0" result="BackgroundImageFix"/><feGaussianBlur in="BackgroundImageFix" stdDeviation="20"/><feComposite in2="SourceAlpha" operator="in" result="effect1_backgroundBlur_583_1657"/><feBlend in="SourceGraphic" in2="effect1_backgroundBlur_583_1657" result="shape"/></filter></defs></svg>