<svg width="286" height="60" fill="none" xmlns="http://www.w3.org/2000/svg"><path d="M15.027 0H282a4 4 0 014 4v37.037a4 4 0 01-.733 2.308l-10.574 14.963A3.998 3.998 0 01271.427 60H4a4 4 0 01-4-4V19.004a4 4 0 01.777-2.369L11.803 1.631A4 4 0 0115.027 0z" fill="#0DE6BE"/><path d="M40.422 36h-1.867v-9.54h-5.313V36h-1.86V24.797h9.04V36zm7.36.188c-1.615 0-2.91-.524-3.884-1.57-.968-1.048-1.453-2.41-1.453-4.087 0-1.802.495-3.24 1.485-4.312.99-1.073 2.333-1.61 4.03-1.61 1.574 0 2.84.521 3.798 1.563.963 1.041 1.445 2.404 1.445 4.086 0 1.828-.492 3.273-1.477 4.336-.984 1.062-2.299 1.593-3.945 1.593zm.085-9.946c-1.026 0-1.862.383-2.508 1.149-.64.765-.96 1.773-.96 3.023 0 1.245.312 2.247.937 3.008.625.76 1.443 1.14 2.453 1.14 1.073 0 1.92-.361 2.539-1.085.62-.724.93-1.737.93-3.04 0-1.338-.302-2.372-.907-3.101-.599-.73-1.427-1.094-2.484-1.094zm17.055 12.781h-1.664V36h-7.61v3.023h-1.656v-4.601h.945c.704-1.318 1.3-2.854 1.79-4.61.489-1.76.765-3.432.828-5.015h5.82v9.625h1.547v4.601zm-3.406-4.601v-8.024h-2.422c-.073 1.167-.326 2.534-.758 4.102-.432 1.568-.914 2.875-1.445 3.922h4.625zm9.968 1.766c-1.614 0-2.909-.524-3.883-1.57-.968-1.048-1.453-2.41-1.453-4.087 0-1.802.495-3.24 1.485-4.312.99-1.073 2.333-1.61 4.03-1.61 1.574 0 2.84.521 3.798 1.563.963 1.041 1.445 2.404 1.445 4.086 0 1.828-.492 3.273-1.476 4.336-.985 1.062-2.3 1.593-3.946 1.593zm.086-9.946c-1.026 0-1.862.383-2.508 1.149-.64.765-.96 1.773-.96 3.023 0 1.245.312 2.247.937 3.008.625.76 1.443 1.14 2.453 1.14 1.073 0 1.92-.361 2.54-1.085.619-.724.929-1.737.929-3.04 0-1.338-.302-2.372-.906-3.101-.6-.73-1.428-1.094-2.485-1.094zM78.96 36V24.797h6.54v1.586h-4.68v3.062h2.14c1.147 0 2.037.271 2.673.813.64.541.96 1.31.96 2.305 0 1.062-.34 1.9-1.023 2.515-.677.615-1.601.922-2.773.922H78.96zm1.86-5.078v3.594h1.68c.682 0 1.208-.162 1.578-.485.37-.323.555-.773.555-1.351 0-1.172-.7-1.758-2.102-1.758h-1.71zm9.649 1.015V36h-1.852V24.797h3.398c1.287 0 2.284.3 2.993.898.708.6 1.062 1.443 1.062 2.532 0 1.088-.37 1.979-1.11 2.671-.739.693-1.739 1.04-3 1.04h-1.49zm0-5.609v4.094h1.203c.797 0 1.403-.185 1.82-.555.417-.37.625-.89.625-1.562 0-1.318-.766-1.977-2.297-1.977h-1.35zM106.039 36H104l-1.008-2.852h-4.406L97.617 36h-2.031l4.195-11.203h2.094L106.039 36zm-3.539-4.367l-1.555-4.469a5.276 5.276 0 01-.148-.703h-.031a4.494 4.494 0 01-.157.703l-1.539 4.469h3.43zm11.226-5.258h-3.218V36h-1.86v-9.625h-3.211v-1.578h8.289v1.578zM115.367 36V24.797h1.852v4.508h1.914c1.187 0 2.112.276 2.773.828.662.552.992 1.338.992 2.36 0 1.082-.349 1.94-1.047 2.57-.692.624-1.638.937-2.835.937h-3.649zm1.852-5.188v3.672h1.609c.677 0 1.198-.164 1.563-.492.369-.328.554-.786.554-1.375 0-1.203-.724-1.804-2.172-1.804h-1.554zm16.734 5.375c-1.615 0-2.909-.523-3.883-1.57-.969-1.047-1.453-2.409-1.453-4.086 0-1.802.495-3.24 1.484-4.312.99-1.073 2.334-1.61 4.032-1.61 1.573 0 2.838.521 3.797 1.563.963 1.041 1.445 2.404 1.445 4.086 0 1.828-.492 3.273-1.477 4.336-.984 1.062-2.299 1.593-3.945 1.593zm.086-9.945c-1.026 0-1.862.383-2.508 1.149-.64.765-.961 1.773-.961 3.023 0 1.245.313 2.247.938 3.008.625.76 1.442 1.14 2.453 1.14 1.073 0 1.919-.361 2.539-1.085.62-.724.93-1.737.93-3.04 0-1.338-.303-2.372-.907-3.101-.599-.73-1.427-1.094-2.484-1.094zM141.43 36V24.797h6.539v1.586h-4.68v3.062h2.141c1.145 0 2.036.271 2.671.813.641.541.961 1.31.961 2.305 0 1.062-.341 1.9-1.023 2.515-.677.615-1.602.922-2.773.922h-3.836zm1.859-5.078v3.594h1.68c.682 0 1.208-.162 1.578-.485.37-.323.554-.773.554-1.351 0-1.172-.7-1.758-2.101-1.758h-1.711zm12.242 5.265c-1.614 0-2.909-.523-3.883-1.57-.968-1.047-1.453-2.409-1.453-4.086 0-1.802.495-3.24 1.485-4.312.989-1.073 2.333-1.61 4.031-1.61 1.573 0 2.838.521 3.797 1.563.963 1.041 1.445 2.404 1.445 4.086 0 1.828-.492 3.273-1.477 4.336-.984 1.062-2.299 1.593-3.945 1.593zm.086-9.945c-1.026 0-1.862.383-2.508 1.149-.64.765-.961 1.773-.961 3.023 0 1.245.313 2.247.938 3.008.625.76 1.443 1.14 2.453 1.14 1.073 0 1.919-.361 2.539-1.085.62-.724.93-1.737.93-3.04 0-1.338-.302-2.372-.907-3.101-.599-.73-1.427-1.094-2.484-1.094zm9.242 5.695V36h-1.851V24.797h3.398c1.287 0 2.284.3 2.992.898.709.6 1.063 1.443 1.063 2.532 0 1.088-.37 1.979-1.11 2.671-.739.693-1.739 1.04-3 1.04h-1.492zm0-5.609v4.094h1.203c.797 0 1.404-.185 1.821-.555.416-.37.625-.89.625-1.562 0-1.318-.766-1.977-2.297-1.977h-1.352zm15.453-1.531l-3.484 7.758c-.646 1.411-1.271 2.372-1.875 2.883-.599.505-1.255.757-1.969.757-.567 0-1.041-.08-1.422-.242V34.18c.454.27.888.406 1.305.406.37 0 .708-.14 1.016-.422.312-.281.648-.776 1.008-1.484l-3.743-7.883h2.118l2.312 5.312c.047.11.138.38.273.813h.016c.016-.052.115-.323.297-.813l2.18-5.312h1.968zm10.063 14.226h-1.664V36h-7.61v3.023h-1.656v-4.601h.946c.703-1.318 1.299-2.854 1.789-4.61.489-1.76.765-3.432.828-5.015h5.82v9.625h1.547v4.601zm-3.406-4.601v-8.024h-2.422c-.073 1.167-.326 2.534-.758 4.102-.432 1.568-.914 2.875-1.445 3.922h4.625zm9.968 1.766c-1.614 0-2.908-.524-3.882-1.57-.969-1.048-1.454-2.41-1.454-4.087 0-1.802.495-3.24 1.485-4.312.989-1.073 2.333-1.61 4.031-1.61 1.573 0 2.839.521 3.797 1.563.963 1.041 1.445 2.404 1.445 4.086 0 1.828-.492 3.273-1.476 4.336-.985 1.062-2.3 1.593-3.946 1.593zm.086-9.946c-1.026 0-1.862.383-2.507 1.149-.641.765-.961 1.773-.961 3.023 0 1.245.312 2.247.937 3.008.625.76 1.443 1.14 2.453 1.14 1.073 0 1.919-.361 2.539-1.085.62-.724.93-1.737.93-3.04 0-1.338-.302-2.372-.906-3.101-.599-.73-1.427-1.094-2.485-1.094zM204.414 36V24.797h3.555c1.083 0 1.94.237 2.57.71.635.475.953 1.092.953 1.852 0 .636-.18 1.188-.539 1.657-.359.468-.857.802-1.492 1v.03c.771.09 1.385.376 1.844.86.463.48.695 1.104.695 1.875 0 .959-.378 1.735-1.133 2.328-.755.594-1.708.891-2.859.891h-3.594zm1.852-9.71v3.187h1.203c.645 0 1.151-.151 1.515-.454.37-.307.555-.74.555-1.296 0-.959-.641-1.438-1.922-1.438h-1.351zm0 4.679v3.547h1.585c.693 0 1.227-.16 1.602-.477.38-.323.57-.766.57-1.328 0-1.162-.804-1.742-2.414-1.742h-1.343zM223.289 36h-2.039l-1.008-2.852h-4.406L214.867 36h-2.031l4.195-11.203h2.094L223.289 36zm-3.539-4.367l-1.555-4.469a5.276 5.276 0 01-.148-.703h-.031a4.494 4.494 0 01-.157.703l-1.539 4.469h3.43zM233.836 36h-1.867v-4.86h-5.274V36h-1.859V24.797h1.859v4.71h5.274v-4.71h1.867V36zm12.265 0h-1.789v-7.46c0-.673.026-1.147.079-1.423h-.047c-.089.235-.198.45-.328.649L238.641 36h-2.04V24.797h1.797v7.125c0 .818-.021 1.351-.062 1.601h.031c.104-.208.24-.437.406-.687l5.188-8.04h2.14V36zm9.071 0h-6.289V24.797h6.039v1.578h-4.18v3.172h3.852v1.57h-3.852v3.313h4.43V36z" fill="#0C0C15"/></svg>