<svg width="32" height="35" fill="none" xmlns="http://www.w3.org/2000/svg"><path d="M3.5.167A3.166 3.166 0 00.333 3.333v4.75h25.334v-4.75A3.166 3.166 0 0022.5.167h-19zM.333 11.25v9.5H13.96A8.7 8.7 0 0121.71 16c1.426 0 2.769.35 3.958.959V11.25H.333zm21.375 7.917a5.542 5.542 0 100 11.083 5.5 5.5 0 002.078-.411L28.948 35H32v-3.052l-5.161-5.162c.26-.642.411-1.341.411-2.078a5.542 5.542 0 00-5.542-5.541zm-.791 3.166a1.584 1.584 0 11-.001 3.168 1.584 1.584 0 010-3.168zM.333 23.917v4.75A3.166 3.166 0 003.5 31.833h13.21A8.692 8.692 0 0113 24.708c0-.267.016-.53.04-.791H.333z" fill="#0de6be"/></svg>