<svg width="38" height="38" fill="none" xmlns="http://www.w3.org/2000/svg"><path d="M4.75 4.75v6.333h3.167V7.917h3.166V4.75H4.75zm22.167 0v3.167h3.166v3.166h3.167V4.75h-6.333zM19 7.917a4.756 4.756 0 00-4.75 4.75 4.756 4.756 0 004.75 4.75 4.756 4.756 0 004.75-4.75A4.756 4.756 0 0019 7.917zM19 19c-2.643 0-7.917 1.325-7.917 3.958v3.959h15.834v-3.959C26.917 20.325 21.643 19 19 19zM4.75 26.917v6.333h6.333v-3.167H7.917v-3.166H4.75zm25.333 0v3.166h-3.166v3.167h6.333v-6.333h-3.167z" fill="#0de6be"/></svg>