<svg width="38" height="38" fill="none" xmlns="http://www.w3.org/2000/svg"><path d="M3.167 3.167V19h22.166V9.5H28.5c.872 0 1.583.71 1.583 1.583v3.167H28.5v9.5h1.583v11.083h3.167V23.75h1.583v-9.5H33.25v-3.167a4.756 4.756 0 00-4.75-4.75h-3.167V3.167H3.167zM14.25 9.5A4.756 4.756 0 0119 14.25h-3.167c0-.873-.71-1.583-1.583-1.583-.872 0-1.583.71-1.583 1.583H9.5a4.756 4.756 0 014.75-4.75zM3.167 22.167v12.666h22.166V22.167H3.167zm7.916 4.75a1.584 1.584 0 110 3.167 1.584 1.584 0 010-3.167zm6.334 0a1.584 1.584 0 11-.002 3.167 1.584 1.584 0 01.002-3.167z" fill="#0de6be"/></svg>