<svg width="38" height="38" fill="none" xmlns="http://www.w3.org/2000/svg"><path d="M9.5 3.167a3.17 3.17 0 00-3.167 3.166v1.584H4.75a1.584 1.584 0 000 3.166h1.583v3.167H4.75a1.584 1.584 0 000 3.167h1.583v3.166H4.75a1.584 1.584 0 000 3.167h1.583v3.167H4.75a1.584 1.584 0 000 3.166h1.583v1.584A3.17 3.17 0 009.5 34.833h19a3.17 3.17 0 003.167-3.166V6.333A3.17 3.17 0 0028.5 3.167h-19zM12.667 9.5h12.666v4.75H12.667V9.5zm0 7.917h12.666v3.166H12.667v-3.166zm0 6.333h12.666v3.167H12.667V23.75z" fill="#0de6be"/></svg>