<svg width="38" height="38" fill="none" xmlns="http://www.w3.org/2000/svg"><g clip-path="url(#clip0_581_63)"><path d="M12.667 6.333C5.672 6.333 0 12.005 0 19s5.671 12.667 12.667 12.667c6.995 0 12.666-5.672 12.666-12.667S19.662 6.333 12.667 6.333zm6.333 0c-.537 0-1.064.044-1.583.109C23.663 7.222 28.5 12.542 28.5 19c0 6.459-4.837 11.778-11.083 12.558.519.065 1.046.109 1.583.109 6.995 0 12.667-5.672 12.667-12.667S25.995 6.333 19 6.333zm6.333 0c-.536 0-1.064.044-1.583.109 6.246.78 11.083 6.1 11.083 12.558 0 6.459-4.837 11.778-11.083 12.558.52.065 1.047.109 1.583.109C32.328 31.667 38 25.995 38 19S32.328 6.333 25.333 6.333zm-13.12 2.533h1.595v2.307c.508.097 3.352.745 3.352 4.905h-2.994c0-2.174-.923-2.518-1.31-2.518-.213 0-1.194.056-1.194 1.84.001 3.115 5.476 2.144 5.476 7.218 0 3.686-3.027 4.186-3.562 4.252v2.106h-1.587V26.87c-.494-.068-3.816-.434-3.816-5.012h2.994c0 2.704 1.393 2.59 1.605 2.59.233 0 1.376-.041 1.376-1.808 0-3.53-5.477-1.962-5.477-7.252 0-3.626 3.004-4.193 3.541-4.261v-2.26z" fill="#0de6be"/></g><defs><clipPath id="clip0_581_63"><path fill="#fff" d="M0 0h38v38H0z"/></clipPath></defs></svg>